<svg width="100" height="100" viewBox="0 0 100 100" fill="none" xmlns="http://www.w3.org/2000/svg">
<g clip-path="url(#clip0_926_79)">
<path d="M29.9196 74.8082L27.1295 77.5984C26.7574 77.9704 26.3296 78.1565 25.846 78.1565C25.3624 78.1565 24.9345 77.9704 24.5625 77.5984L-1.44196 51.594C-1.81399 51.2219 -2 50.7941 -2 50.3105C-2 49.8268 -1.81399 49.399 -1.44196 49.027L24.5625 23.0225C24.9345 22.6505 25.3624 22.4645 25.846 22.4645C26.3296 22.4645 26.7574 22.6505 27.1295 23.0225L29.9196 25.8127C30.2917 26.1847 30.4777 26.6126 30.4777 27.0962C30.4777 27.5798 30.2917 28.0077 29.9196 28.3797L7.98884 50.3105L29.9196 72.2413C30.2917 72.6133 30.4777 73.0411 30.4777 73.5248C30.4777 74.0084 30.2917 74.4362 29.9196 74.8082ZM62.8996 15.2658L42.0848 87.3082C41.936 87.7919 41.6477 88.1546 41.2199 88.3964C40.792 88.6382 40.3549 88.6847 39.9085 88.5359L36.4487 87.5873C35.965 87.4385 35.6023 87.1501 35.3605 86.7223C35.1187 86.2945 35.0722 85.8387 35.221 85.3551L56.0357 13.3127C56.1845 12.8291 56.4728 12.4664 56.9007 12.2245C57.3285 11.9827 57.7656 11.9362 58.2121 12.085L61.6719 13.0337C62.1555 13.1825 62.5182 13.4708 62.76 13.8987C63.0019 14.3265 63.0484 14.7822 62.8996 15.2658ZM99.5625 51.594L73.558 77.5984C73.186 77.9704 72.7582 78.1565 72.2746 78.1565C71.7909 78.1565 71.3631 77.9704 70.9911 77.5984L68.2009 74.8082C67.8289 74.4362 67.6429 74.0084 67.6429 73.5248C67.6429 73.0411 67.8289 72.6133 68.2009 72.2413L90.1317 50.3105L68.2009 28.3797C67.8289 28.0077 67.6429 27.5798 67.6429 27.0962C67.6429 26.6126 67.8289 26.1847 68.2009 25.8127L70.9911 23.0225C71.3631 22.6505 71.7909 22.4645 72.2746 22.4645C72.7582 22.4645 73.186 22.6505 73.558 23.0225L99.5625 49.027C99.9345 49.399 100.121 49.8268 100.121 50.3105C100.121 50.7941 99.9345 51.2219 99.5625 51.594Z" fill="black"/>
</g>
<defs>
<clipPath id="clip0_926_79">
<rect width="100" height="100" fill="white"/>
</clipPath>
</defs>
</svg>
